#N canvas 0 22 1920 1036 10;
#X obj 143 132 bng 20 250 50 0 \$0-kick-s \$0-kick-r empty 17 7 0 10
#ff8300 #000000 #000000;
#X obj 193 132 bng 20 250 50 0 \$0-snare-s \$0-snare-r empty 17 7 0
10 #faff00 #000000 #000000;
#X obj 243 132 bng 20 250 50 0 \$0-hihat-s \$0-hihat-r empty 17 7 0
10 #00faff #000000 #000000;
#N canvas 278 326 1604 732 guts 1;
#X obj 208 270 key;
#X floatatom 208 291 5 0 0 0 - - - 0;
#X obj 208 311 sel 97;
#X obj 208 332 send \$0-kick-r;
#X obj 208 412 r \$0-kick-s;
#X obj 208 454 line~;
#X obj 208 475 sqrt~;
#X obj 208 517 -~ 0.25;
#X obj 208 538 cos~;
#X obj 208 559 lop~ 1000;
#X obj 208 580 throw~ \$0-output;
#X obj 1067 529 catch~ \$0-output;
#X obj 1067 571 clip~ -1 1;
#X obj 1137 592 pow~ 3;
#X obj 1137 613 /~ 3;
#X obj 1067 639 -~;
#X obj 1067 660 /~ 2;
#X obj 1067 681 dac~ 1 2;
#X obj 1067 550 hip~ 20;
#X obj 208 496 *~ 15;
#X msg 208 433 0 \, 1 150;
#X obj 348 454 line~;
#X obj 318 270 key;
#X floatatom 318 291 5 0 0 0 - - - 0;
#X obj 318 311 sel 115;
#X obj 318 332 send \$0-snare-r;
#X obj 348 412 r \$0-snare-s;
#X obj 348 475 *~;
#X obj 348 566 *~;
#X obj 348 587 +~;
#X obj 348 608 clip~ -1 1;
#X obj 348 629 lop~ 4000;
#X obj 348 650 throw~ \$0-output;
#X obj 448 524 line~;
#X obj 448 482 r \$0-snare-s;
#X obj 448 545 *~;
#X msg 448 503 1 \, 0 200;
#X obj 448 566 *~;
#X obj 542 465 noise~;
#X obj 542 486 *~;
#X obj 542 507 *~;
#X msg 348 433 1 \, 0 50;
#X obj 542 528 hip~ 2000;
#X obj 542 549 bp~ 4000 0.7;
#X obj 388 526 mtof~;
#X obj 388 550 osc~;
#X obj 388 505 +~ 50;
#X obj 388 484 *~ 12;
#X obj 428 270 key;
#X floatatom 428 291 5 0 0 0 - - - 0;
#X obj 428 311 sel 100;
#X obj 428 332 send \$0-hihat-r;
#X obj 816 586 r \$0-hihat-r;
#X obj 738 433 phasor~ 341;
#X obj 658 454 rzero~ 1;
#X msg 816 607 1 \, 0 100;
#X obj 816 628 line~;
#X obj 816 649 *~;
#X obj 658 655 *~;
#X obj 738 454 rzero~ 1;
#X obj 658 475 +~;
#X obj 658 433 phasor~ 591;
#X obj 658 496 hip~ 8000;
#X obj 826 437 osc~ 10000;
#X obj 826 458 *~ 0.1;
#X obj 784 484 noise~;
#X obj 784 505 hip~ 8000;
#X obj 775 527 *~ 0.5;
#X obj 658 697 throw~ \$0-output;
#X obj 658 676 *~ 1;
#X obj 544 102 r \$0-tgl-s;
#X msg 544 144 color \$1 \$1;
#X obj 544 165 s \$0-tgl-r;
#X obj 544 123 * 17;
#X connect 0 0 1 0;
#X connect 1 0 2 0;
#X connect 2 0 3 0;
#X connect 4 0 20 0;
#X connect 5 0 6 0;
#X connect 6 0 19 0;
#X connect 7 0 8 0;
#X connect 8 0 9 0;
#X connect 9 0 10 0;
#X connect 11 0 18 0;
#X connect 12 0 13 0;
#X connect 12 0 15 0;
#X connect 13 0 14 0;
#X connect 14 0 15 1;
#X connect 15 0 16 0;
#X connect 16 0 17 0;
#X connect 16 0 17 1;
#X connect 18 0 12 0;
#X connect 19 0 7 0;
#X connect 20 0 5 0;
#X connect 21 0 27 0;
#X connect 21 0 27 1;
#X connect 21 0 47 0;
#X connect 22 0 23 0;
#X connect 23 0 24 0;
#X connect 24 0 25 0;
#X connect 26 0 41 0;
#X connect 27 0 28 0;
#X connect 28 0 29 0;
#X connect 29 0 30 0;
#X connect 30 0 31 0;
#X connect 31 0 32 0;
#X connect 33 0 35 0;
#X connect 33 0 35 1;
#X connect 34 0 36 0;
#X connect 35 0 37 0;
#X connect 36 0 33 0;
#X connect 37 0 29 1;
#X connect 38 0 39 0;
#X connect 38 0 39 1;
#X connect 38 0 40 1;
#X connect 39 0 40 0;
#X connect 40 0 42 0;
#X connect 41 0 21 0;
#X connect 42 0 43 0;
#X connect 43 0 37 1;
#X connect 44 0 45 0;
#X connect 45 0 28 1;
#X connect 46 0 44 0;
#X connect 47 0 46 0;
#X connect 48 0 49 0;
#X connect 49 0 50 0;
#X connect 50 0 51 0;
#X connect 52 0 55 0;
#X connect 53 0 59 0;
#X connect 54 0 60 0;
#X connect 55 0 56 0;
#X connect 56 0 57 0;
#X connect 56 0 57 1;
#X connect 57 0 58 1;
#X connect 58 0 69 0;
#X connect 59 0 60 1;
#X connect 60 0 62 0;
#X connect 61 0 54 0;
#X connect 62 0 58 0;
#X connect 63 0 64 0;
#X connect 64 0 60 1;
#X connect 65 0 66 0;
#X connect 66 0 67 0;
#X connect 67 0 62 0;
#X connect 69 0 68 0;
#X connect 70 0 73 0;
#X connect 71 0 72 0;
#X connect 73 0 71 0;
#X restore 281 569 pd guts;
#X obj 134 185 tgl 50 0 \$0-tgl-s \$0-tgl-r empty 17 7 0 10 #fcfcfc
#fcfcfc #000000 0 1;
#X coords 0 1036 1 1035 515 300 0;
