#N canvas 0 22 1920 1036 10;
#X obj 83 104 bng 50 250 50 0 kick-s kick-r empty 17 7 0 10 #ff8300
#000000 #000000;
#X obj 133 104 bng 50 250 50 0 snare-s snare-r empty 17 7 0 10 #faff00
#000000 #000000;
#X obj 183 104 bng 50 250 50 0 hihat-s hihat-r empty 17 7 0 10 #00faff
#000000 #000000;
#N canvas 278 326 1604 732 guts 0;
#X obj 208 270 key;
#X floatatom 208 291 5 0 0 0 - - - 0;
#X obj 208 311 sel 97;
#X obj 208 332 send kick-r;
#X obj 208 412 r kick-s;
#X obj 208 454 line~;
#X obj 208 475 sqrt~;
#X obj 208 517 -~ 0.25;
#X obj 208 538 cos~;
#X obj 208 559 lop~ 1000;
#X obj 184 675 clip~ -1 1;
#X obj 254 696 pow~ 3;
#X obj 254 717 /~ 3;
#X obj 184 743 -~;
#X obj 184 764 /~ 2;
#X obj 184 785 dac~ 1 2;
#X obj 184 654 hip~ 20;
#X obj 208 496 *~ 15;
#X msg 208 433 0 \, 1 150;
#X obj 348 454 line~;
#X obj 318 270 key;
#X floatatom 318 291 5 0 0 0 - - - 0;
#X obj 318 311 sel 115;
#X obj 318 332 send snare-r;
#X obj 348 412 r snare-s;
#X obj 348 475 *~;
#X obj 348 566 *~;
#X obj 348 587 +~;
#X obj 348 608 clip~ -1 1;
#X obj 348 629 lop~ 4000;
#X obj 448 524 line~;
#X obj 448 482 r snare-s;
#X obj 448 545 *~;
#X msg 448 503 1 \, 0 200;
#X obj 448 566 *~;
#X obj 542 465 noise~;
#X obj 542 486 *~;
#X obj 542 507 *~;
#X msg 348 433 1 \, 0 50;
#X obj 542 528 hip~ 2000;
#X obj 542 549 bp~ 4000 0.7;
#X obj 388 526 mtof~;
#X obj 388 550 osc~;
#X obj 388 505 +~ 50;
#X obj 388 484 *~ 12;
#X obj 428 270 key;
#X floatatom 428 291 5 0 0 0 - - - 0;
#X obj 428 311 sel 100;
#X obj 428 332 send hihat-r;
#X obj 816 586 r hihat-r;
#X obj 738 433 phasor~ 341;
#X obj 658 454 rzero~ 1;
#X msg 816 607 1 \, 0 100;
#X obj 816 628 line~;
#X obj 816 649 *~;
#X obj 658 655 *~;
#X obj 738 454 rzero~ 1;
#X obj 658 475 +~;
#X obj 658 433 phasor~ 591;
#X obj 658 496 hip~ 8000;
#X obj 826 437 osc~ 10000;
#X obj 826 458 *~ 0.1;
#X obj 784 484 noise~;
#X obj 784 505 hip~ 8000;
#X obj 775 527 *~ 0.5;
#X obj 658 676 *~ 1;
#X obj 544 102 r tgl-s;
#X msg 544 144 color \$1 \$1;
#X obj 544 165 s tgl-r;
#X obj 544 123 * 17;
#X connect 0 0 1 0;
#X connect 1 0 2 0;
#X connect 2 0 3 0;
#X connect 4 0 18 0;
#X connect 5 0 6 0;
#X connect 6 0 17 0;
#X connect 7 0 8 0;
#X connect 8 0 9 0;
#X connect 9 0 16 0;
#X connect 10 0 11 0;
#X connect 10 0 13 0;
#X connect 11 0 12 0;
#X connect 12 0 13 1;
#X connect 13 0 14 0;
#X connect 14 0 15 0;
#X connect 14 0 15 1;
#X connect 16 0 10 0;
#X connect 17 0 7 0;
#X connect 18 0 5 0;
#X connect 19 0 25 0;
#X connect 19 0 25 1;
#X connect 19 0 44 0;
#X connect 20 0 21 0;
#X connect 21 0 22 0;
#X connect 22 0 23 0;
#X connect 24 0 38 0;
#X connect 25 0 26 0;
#X connect 26 0 27 0;
#X connect 27 0 28 0;
#X connect 28 0 29 0;
#X connect 29 0 16 0;
#X connect 30 0 32 0;
#X connect 30 0 32 1;
#X connect 31 0 33 0;
#X connect 32 0 34 0;
#X connect 33 0 30 0;
#X connect 34 0 27 1;
#X connect 35 0 36 0;
#X connect 35 0 36 1;
#X connect 35 0 37 1;
#X connect 36 0 37 0;
#X connect 37 0 39 0;
#X connect 38 0 19 0;
#X connect 39 0 40 0;
#X connect 40 0 34 1;
#X connect 41 0 42 0;
#X connect 42 0 26 1;
#X connect 43 0 41 0;
#X connect 44 0 43 0;
#X connect 45 0 46 0;
#X connect 46 0 47 0;
#X connect 47 0 48 0;
#X connect 49 0 52 0;
#X connect 50 0 56 0;
#X connect 51 0 57 0;
#X connect 52 0 53 0;
#X connect 53 0 54 0;
#X connect 53 0 54 1;
#X connect 54 0 55 1;
#X connect 55 0 65 0;
#X connect 56 0 57 1;
#X connect 57 0 59 0;
#X connect 58 0 51 0;
#X connect 59 0 55 0;
#X connect 60 0 61 0;
#X connect 61 0 57 1;
#X connect 62 0 63 0;
#X connect 63 0 64 0;
#X connect 64 0 59 0;
#X connect 65 0 16 0;
#X connect 66 0 69 0;
#X connect 67 0 68 0;
#X connect 69 0 67 0;
#X restore 281 569 pd guts;
#X obj 75 172 tgl 50 0 tgl-s tgl-r empty 17 7 0 10 #fcfcfc #fcfcfc
#000000 0 1;
#X coords 0 1036 1 1035 515 300 0;
